<?xml version="1.0" encoding="iso-8859-1"?>
<!-- Generator: Adobe Illustrator 19.0.0, SVG Export Plug-In . SVG Version: 6.00 Build 0)  -->
<svg version="1.1" id="Capa_1" xmlns="http://www.w3.org/2000/svg" xmlns:xlink="http://www.w3.org/1999/xlink" x="0px" y="0px"
	 viewBox="0 0 55.597 55.597" style="enable-background:new 0 0 55.597 55.597;" xml:space="preserve">
<path style="fill:#5C6887;" d="M55.458,51.807c0.389,0.664-0.09,1.5-0.859,1.5H27.625H0.997c-0.767,0-1.246-0.831-0.862-1.495
	L26.768,2.787c0.382-0.661,1.335-0.663,1.721-0.005L55.458,51.807z"/>
<polygon style="fill:#F0C419;" points="8.207,47.45 27.659,11.112 47.357,47.45 "/>
<g>
	<path style="fill:#FFFFFF;" d="M27.597,19.307c-0.553,0-1,0.447-1,1v17c0,0.553,0.447,1,1,1s1-0.447,1-1v-17
		C28.597,19.754,28.149,19.307,27.597,19.307z"/>
	<path style="fill:#FFFFFF;" d="M27.597,40.307c-0.553,0-1,0.447-1,1v2c0,0.553,0.447,1,1,1s1-0.447,1-1v-2
		C28.597,40.754,28.149,40.307,27.597,40.307z"/>
</g>
<g>
</g>
<g>
</g>
<g>
</g>
<g>
</g>
<g>
</g>
<g>
</g>
<g>
</g>
<g>
</g>
<g>
</g>
<g>
</g>
<g>
</g>
<g>
</g>
<g>
</g>
<g>
</g>
<g>
</g>
</svg>
